<svg xmlns="http://www.w3.org/2000/svg" viewBox="0 0 200 200">
  <defs>
    <linearGradient id="mainGradient" x1="0%" y1="0%" x2="100%" y2="100%">
      <stop offset="0%" style="stop-color:#8B5CF6;stop-opacity:1" />
      <stop offset="100%" style="stop-color:#3B82F6;stop-opacity:1" />
    </linearGradient>
  </defs>

  <!-- Parent Body (Blob) -->
  <path d="M40 70 Q40 30 80 30 L100 30 Q130 30 130 60 L130 130 Q130 160 100 160 L70 160 Q40 160 40 130 Z" fill="url(#mainGradient)" />
  
  <!-- Child Body (Blob) -->
  <path d="M100 90 Q100 60 130 60 L150 60 Q180 60 180 90 L180 130 Q180 160 150 160 L130 160 Q100 160 100 130 Z" fill="url(#mainGradient)" />

  <!-- Parent Face -->
  <circle cx="70" cy="75" r="7" fill="#1E1E1E" />
  <circle cx="100" cy="75" r="7" fill="#1E1E1E" />
  
  <!-- Child Face -->
  <circle cx="130" cy="100" r="6" fill="#1E1E1E" />
  <circle cx="160" cy="100" r="6" fill="#1E1E1E" />
  
  <!-- Hugging Arm -->
  <path d="M40 100 Q20 120 50 130 L110 130" fill="none" stroke="url(#mainGradient)" stroke-width="20" stroke-linecap="round" />
</svg>
