<svg xmlns="http://www.w3.org/2000/svg" viewBox="0 0 200 200">
  <defs>
    <linearGradient id="mainGradient" x1="0%" y1="0%" x2="100%" y2="100%">
      <stop offset="0%" style="stop-color:#8B5CF6;stop-opacity:1" />
      <stop offset="100%" style="stop-color:#3B82F6;stop-opacity:1" />
    </linearGradient>
  </defs>

  <!-- Legs -->
  <path d="M75 150 L75 170 A8 8 0 0 0 83 178 L95 178 A8 8 0 0 0 103 170 L103 150" fill="url(#mainGradient)" />
  <path d="M125 150 L125 170 A8 8 0 0 0 133 178 L145 178 A8 8 0 0 0 153 170 L153 150" fill="url(#mainGradient)" />

  <!-- Body Squircle -->
  <rect x="50" y="60" width="120" height="100" rx="25" ry="25" fill="url(#mainGradient)" />

  <!-- Arms -->
  <path d="M50 100 L35 120 A5 5 0 0 0 40 125" fill="url(#mainGradient)" stroke="url(#mainGradient)" stroke-width="18" stroke-linecap="round" />
  <path d="M170 100 L185 120 A5 5 0 0 0 180 125" fill="url(#mainGradient)" stroke="url(#mainGradient)" stroke-width="18" stroke-linecap="round" />

  <!-- Face -->
  <circle cx="90" cy="95" r="8" fill="#1E1E1E" />
  <circle cx="130" cy="95" r="8" fill="#1E1E1E" />

  <!-- Graduation Cap -->
  <path d="M40 55 L110 35 L180 55 L110 75 Z" fill="#312E81" /> <!-- Top diamond -->
  <path d="M60 55 L60 80 Q110 90 160 80 L160 55" fill="#312E81" /> <!-- Cap base -->
  
  <!-- Tassel -->
  <line x1="170" y1="55" x2="170" y2="90" stroke="#312E81" stroke-width="3" />
  <circle cx="170" cy="90" r="4" fill="#312E81" />
</svg>
